<svg width="1425" height="137" viewBox="0 0 1425 137" fill="none" xmlns="http://www.w3.org/2000/svg">
<path d="M48.47 52.8601L14.47 33.2501C12.2581 32.1059 9.68999 31.8591 7.30065 32.5612C4.91131 33.2634 2.88496 34.8602 1.6437 37.0192C0.402447 39.1782 0.0419897 41.7328 0.637416 44.151C1.23284 46.5691 2.73824 48.6643 4.84003 50.0001L38.84 69.6101C39.9399 70.2451 41.154 70.6572 42.4131 70.8229C43.6721 70.9886 44.9515 70.9047 46.1782 70.576C47.4049 70.2473 48.5548 69.6802 49.5623 68.9071C50.5697 68.1339 51.4151 67.17 52.05 66.0701C52.685 64.9703 53.0971 63.7562 53.2628 62.4971C53.4285 61.238 53.3446 59.9586 53.0159 58.732C52.6872 57.5053 52.1201 56.3554 51.347 55.3479C50.5738 54.3404 49.6099 53.4951 48.51 52.8601H48.47Z" fill="white"/>
<path d="M116.19 33.25L82.19 13.65C81.0902 13.015 79.8761 12.6029 78.617 12.4372C77.3579 12.2715 76.0785 12.3554 74.8519 12.6841C73.6252 13.0128 72.4753 13.5799 71.4678 14.353C70.4603 15.1261 69.615 16.0901 68.98 17.19C68.3451 18.2898 67.933 19.5039 67.7673 20.763C67.6015 22.0221 67.6854 23.3015 68.0142 24.5281C68.3429 25.7548 68.91 26.9047 69.6831 27.9122C70.4562 28.9197 71.4202 29.765 72.52 30.4L106.52 50C107.62 50.6349 108.834 51.047 110.093 51.2127C111.352 51.3784 112.632 51.2946 113.858 50.9658C115.085 50.6371 116.235 50.07 117.242 49.2969C118.25 48.5238 119.095 47.5598 119.73 46.46C120.365 45.3601 120.777 44.146 120.943 42.8869C121.109 41.6279 121.025 40.3485 120.696 39.1218C120.367 37.8951 119.8 36.7452 119.027 35.7377C118.254 34.7302 117.29 33.8849 116.19 33.25V33.25Z" fill="white"/>
<path d="M105.18 52.3497L89.3301 43.1797L72.5601 52.8597C71.4602 53.4946 70.4963 54.34 69.7231 55.3475C68.95 56.355 68.3829 57.5049 68.0542 58.7315C67.7255 59.9582 67.6416 61.2376 67.8073 62.4967C67.973 63.7558 68.3851 64.9699 69.0201 66.0697C69.655 67.1695 70.5004 68.1335 71.5079 68.9066C72.5153 69.6797 73.6653 70.2468 74.8919 70.5756C76.1186 70.9043 77.398 70.9882 78.6571 70.8225C79.9161 70.6567 81.1303 70.2446 82.2301 69.6097L109.53 53.8497C107.998 53.6285 106.523 53.1195 105.18 52.3497Z" fill="white"/>
<path d="M15.85 30.93L31.7 40.08L48.47 30.4C49.5698 29.765 50.5338 28.9197 51.3069 27.9122C52.0801 26.9047 52.6472 25.7548 52.9759 24.5281C53.3046 23.3015 53.3885 22.0221 53.2228 20.763C53.057 19.5039 52.6449 18.2898 52.01 17.19C51.3751 16.0902 50.5297 15.1262 49.5222 14.353C48.5147 13.5799 47.3648 13.0128 46.1382 12.6841C43.6608 12.0202 41.0212 12.3677 38.8 13.65L11.5 29.41C13.0322 29.6406 14.5076 30.1562 15.85 30.93V30.93Z" fill="white"/>
<path d="M159.45 60.6805C155.989 58.7206 153.124 55.8591 151.16 52.4005C149.143 48.8491 148.107 44.8245 148.16 40.7405C148.107 36.6564 149.143 32.6318 151.16 29.0805C153.124 25.6218 155.989 22.7603 159.45 20.8005C162.931 18.8054 166.878 17.7701 170.89 17.8005C174.009 17.7791 177.102 18.3598 180 19.5105C182.684 20.5472 185.083 22.206 187 24.3505L183.26 28.0905C181.831 26.3307 179.985 24.9558 177.89 24.0905C175.672 23.168 173.292 22.6988 170.89 22.7105C167.871 22.6994 164.902 23.4712 162.27 24.9505C159.584 26.4625 157.359 28.6743 155.83 31.3505C154.173 34.2089 153.333 37.4672 153.4 40.7705C153.333 44.0737 154.173 47.332 155.83 50.1905C157.37 52.8372 159.595 55.0203 162.27 56.5105C164.711 57.819 167.409 58.5744 170.174 58.723C172.939 58.8717 175.703 58.4099 178.27 57.3705C180.21 56.484 181.97 55.2465 183.46 53.7205C184.565 52.498 185.439 51.0851 186.04 49.5505C186.707 47.843 187.098 46.0406 187.2 44.2105H171V39.3505H192.11C192.31 40.4022 192.413 41.4699 192.42 42.5405C192.424 45.22 191.988 47.882 191.13 50.4205C190.283 52.9399 188.87 55.2319 187 57.1205C182.873 61.5005 177.493 63.6905 170.86 63.6905C166.857 63.7172 162.919 62.6783 159.45 60.6805V60.6805Z" fill="white"/>
<path d="M203.9 61.57C201.546 60.1784 199.624 58.16 198.35 55.74C197.001 53.2015 196.314 50.3643 196.35 47.49C196.314 44.6157 197.001 41.7785 198.35 39.24C199.624 36.82 201.546 34.8016 203.9 33.41C206.324 31.988 209.09 31.255 211.9 31.29C214.743 31.2458 217.543 31.9789 220 33.41C222.367 34.7947 224.3 36.8141 225.58 39.24C226.929 41.7785 227.617 44.6157 227.58 47.49C227.617 50.3643 226.929 53.2015 225.58 55.74C224.3 58.1658 222.367 60.1852 220 61.57C217.552 62.9958 214.763 63.7286 211.93 63.69C209.11 63.7305 206.333 62.9972 203.9 61.57V61.57ZM217.09 57.57C218.711 56.6115 220.038 55.2283 220.93 53.57C221.914 51.7254 222.409 49.66 222.37 47.57C222.409 45.4799 221.914 43.4145 220.93 41.57C220.038 39.9116 218.711 38.5284 217.09 37.57C215.534 36.6384 213.754 36.1475 211.94 36.15C210.146 36.1514 208.386 36.6423 206.85 37.57C205.229 38.5284 203.902 39.9116 203.01 41.57C202.026 43.4145 201.531 45.4799 201.57 47.57C201.531 49.66 202.026 51.7254 203.01 53.57C203.902 55.2283 205.229 56.6115 206.85 57.57C208.387 58.4946 210.147 58.9821 211.94 58.98C213.755 58.9794 215.535 58.4851 217.09 57.55V57.57Z" fill="white"/>
<path d="M238.69 61.5705C236.336 60.1789 234.414 58.1605 233.14 55.7405C231.791 53.202 231.104 50.3648 231.14 47.4905C231.104 44.6162 231.791 41.779 233.14 39.2405C234.414 36.8205 236.336 34.8021 238.69 33.4105C241.114 31.9885 243.88 31.2555 246.69 31.2905C249.523 31.2518 252.312 31.9847 254.76 33.4105C257.127 34.7952 259.06 36.8147 260.34 39.2405C261.689 41.779 262.377 44.6162 262.34 47.4905C262.377 50.3648 261.689 53.202 260.34 55.7405C259.06 58.1663 257.127 60.1858 254.76 61.5705C252.312 62.9963 249.523 63.7292 246.69 63.6905C243.88 63.7255 241.114 62.9925 238.69 61.5705V61.5705ZM251.88 57.5705C253.501 56.6121 254.829 55.2289 255.72 53.5705C256.704 51.726 257.199 49.6606 257.16 47.5705C257.199 45.4805 256.704 43.415 255.72 41.5705C254.829 39.9121 253.501 38.529 251.88 37.5705C250.324 36.6389 248.544 36.1481 246.73 36.1505C244.936 36.1519 243.176 36.6429 241.64 37.5705C240.019 38.529 238.692 39.9121 237.8 41.5705C236.816 43.415 236.321 45.4805 236.36 47.5705C236.321 49.6606 236.816 51.726 237.8 53.5705C238.692 55.2289 240.019 56.6121 241.64 57.5705C243.177 58.4951 244.937 58.9827 246.73 58.9805C248.545 58.9799 250.325 58.4856 251.88 57.5505V57.5705Z" fill="white"/>
<path d="M272 74.35C269.846 72.8275 268.202 70.6913 267.28 68.22L272.12 66.22C272.72 67.9968 273.873 69.5351 275.41 70.61C277.057 71.7236 279.014 72.2872 281 72.22C284.233 72.22 286.717 71.28 288.45 69.4C290.183 67.52 291.053 64.9 291.06 61.54V58.29H290.82C289.754 59.9131 288.296 61.2409 286.58 62.15C284.663 63.1988 282.505 63.7295 280.32 63.69C277.777 63.6996 275.286 62.9701 273.15 61.59C270.908 60.1619 269.086 58.1637 267.87 55.8C266.523 53.2393 265.836 50.3832 265.87 47.49C265.837 44.5937 266.524 41.7346 267.87 39.17C269.09 36.7915 270.923 34.7822 273.18 33.35C275.316 31.9699 277.807 31.2403 280.35 31.25C282.534 31.2119 284.69 31.739 286.61 32.78C288.324 33.6958 289.782 35.0262 290.85 36.65H291.09V32.27H296.09V61.48C296.171 64.4483 295.482 67.3871 294.09 70.01C292.872 72.2526 290.999 74.0702 288.72 75.22C286.326 76.396 283.687 76.9856 281.02 76.94C277.81 77.0951 274.639 76.1845 272 74.35V74.35ZM286.11 57.63C287.669 56.6549 288.932 55.2716 289.76 53.63C290.719 51.7389 291.193 49.6395 291.14 47.52C291.198 45.3819 290.727 43.2626 289.77 41.35C288.953 39.7006 287.688 38.3145 286.12 37.35C284.611 36.4445 282.88 35.9738 281.12 35.99C279.356 35.9755 277.624 36.4571 276.12 37.38C274.566 38.3605 273.305 39.7424 272.47 41.38C271.513 43.2715 271.039 45.3706 271.09 47.49C271.037 49.6095 271.512 51.7089 272.47 53.6C273.302 55.2395 274.563 56.6222 276.12 57.6C277.621 58.5028 279.339 58.9799 281.09 58.9799C282.841 58.9799 284.56 58.5028 286.06 57.6L286.11 57.63Z" fill="white"/>
<path d="M303.12 18.7705H308.33V62.7105H303.12V18.7705Z" fill="white"/>
<path d="M320.7 61.6006C318.395 60.2161 316.516 58.2231 315.27 55.8406C313.92 53.2669 313.232 50.397 313.27 47.4906C313.253 44.6689 313.893 41.882 315.14 39.3506C316.313 36.9406 318.13 34.9021 320.39 33.4606C322.73 31.9895 325.447 31.232 328.21 31.2806C330.934 31.2233 333.622 31.9151 335.98 33.2806C338.201 34.6118 339.981 36.5661 341.1 38.9006C342.33 41.5056 342.94 44.3604 342.88 47.2406C342.899 47.6543 342.858 48.0684 342.76 48.4706H318.58C318.587 50.5202 319.161 52.5278 320.24 54.2706C321.177 55.7697 322.5 56.989 324.07 57.8006C325.541 58.5616 327.174 58.9593 328.83 58.9606C332.67 58.9606 335.633 57.0806 337.72 53.3206L342.33 55.5306C341.058 57.9373 339.188 59.976 336.9 61.4506C334.449 62.8915 331.663 63.6636 328.82 63.69C325.977 63.7163 323.177 62.9958 320.7 61.6006V61.6006ZM337.36 44.1106C337.257 42.8265 336.9 41.5756 336.31 40.4306C335.622 39.128 334.582 38.0438 333.31 37.3006C331.717 36.3828 329.897 35.9355 328.06 36.0106C325.868 35.9745 323.743 36.7673 322.11 38.2306C320.428 39.7743 319.329 41.8511 319 44.1106H337.36Z" fill="white"/>
<path d="M362.82 18.7697H376.13C380.231 18.6778 384.287 19.6384 387.91 21.5597C391.193 23.3488 393.882 26.0559 395.65 29.3497C397.5 32.8637 398.429 36.7893 398.35 40.7597C398.428 44.73 397.499 48.6553 395.65 52.1697C393.879 55.4561 391.19 58.1559 387.91 59.9397C384.288 61.8657 380.231 62.8265 376.13 62.7297H362.82V18.7697ZM376.13 57.7697C381.33 57.7697 385.444 56.2764 388.47 53.2897C391.497 50.303 393.007 46.1197 393 40.7397C393 35.4064 391.487 31.233 388.46 28.2197C385.434 25.2064 381.32 23.713 376.12 23.7397H368V57.7397L376.13 57.7697Z" fill="white"/>
<path d="M410.16 61.5999C407.855 60.2153 405.976 58.2224 404.73 55.8399C403.379 53.2661 402.692 50.3962 402.73 47.4899C402.71 44.6666 403.354 41.8782 404.61 39.3499C405.777 36.9385 407.591 34.8992 409.85 33.4599C412.189 31.9888 414.907 31.2312 417.67 31.2799C420.391 31.2207 423.076 31.9128 425.43 33.2799C427.653 34.6109 429.437 36.5649 430.56 38.8999C431.785 41.5065 432.394 44.3601 432.34 47.2399C432.359 47.6535 432.318 48.0676 432.22 48.4699H408C408.012 50.5187 408.586 52.525 409.66 54.2699C410.597 55.7689 411.92 56.9882 413.49 57.7999C414.961 58.5608 416.593 58.9585 418.25 58.9599C422.09 58.9599 425.057 57.0799 427.15 53.3199L431.75 55.5299C430.478 57.9365 428.608 59.9752 426.32 61.4499C423.869 62.8907 421.083 63.6629 418.24 63.6892C415.397 63.7155 412.597 62.9951 410.12 61.5999H410.16ZM426.82 44.1099C426.717 42.8257 426.36 41.5748 425.77 40.4299C425.081 39.1272 424.042 38.043 422.77 37.2999C421.177 36.3821 419.357 35.9348 417.52 36.0099C415.328 35.9737 413.203 36.7666 411.57 38.2299C409.858 39.7614 408.73 41.8396 408.38 44.1099H426.82Z" fill="white"/>
<path d="M433.56 32.2705H439.21L448.54 56.5705H448.66L458.11 32.2705H463.63L451.17 62.7105H445.9L433.56 32.2705Z" fill="white"/>
<path d="M473.17 61.6005C470.865 60.216 468.987 58.2231 467.74 55.8406C466.389 53.2669 465.702 50.3969 465.74 47.4905C465.72 44.6673 466.364 41.8789 467.62 39.3506C468.79 36.9385 470.608 34.8992 472.87 33.4606C475.209 31.9884 477.927 31.2307 480.69 31.2806C483.411 31.224 486.096 31.9158 488.45 33.2806C490.673 34.6089 492.454 36.564 493.57 38.9005C494.8 41.5055 495.41 44.3603 495.35 47.2406C495.369 47.6542 495.329 48.0683 495.23 48.4705H471.05C471.067 50.5187 471.641 52.5238 472.71 54.2705C473.648 55.7722 474.975 56.992 476.55 57.8006C478.018 58.5614 479.647 58.9592 481.3 58.9606C485.147 58.9606 488.114 57.0806 490.2 53.3206L494.8 55.5306C493.528 57.9372 491.658 59.9759 489.37 61.4505C486.919 62.8914 484.133 63.6636 481.29 63.6899C478.447 63.7162 475.647 62.9957 473.17 61.6005V61.6005ZM489.83 44.1106C489.744 42.8298 489.404 41.579 488.83 40.4306C488.14 39.1288 487.102 38.045 485.83 37.3006C484.241 36.3841 482.424 35.9368 480.59 36.0106C478.398 35.9714 476.271 36.7647 474.64 38.2305C472.925 39.7611 471.794 41.8392 471.44 44.1106H489.83Z" fill="white"/>
<path d="M500.63 18.7705H505.85V62.7105H500.63V18.7705Z" fill="white"/>
<path d="M518.36 61.5705C516.006 60.1789 514.084 58.1605 512.81 55.7405C511.461 53.202 510.773 50.3648 510.81 47.4905C510.773 44.6162 511.461 41.779 512.81 39.2405C514.084 36.8205 516.006 34.8021 518.36 33.4105C520.784 31.9885 523.55 31.2555 526.36 31.2905C529.192 31.2518 531.982 31.9847 534.43 33.4105C536.797 34.7952 538.73 36.8147 540.01 39.2405C541.359 41.779 542.046 44.6162 542.01 47.4905C542.046 50.3648 541.359 53.202 540.01 55.7405C538.73 58.1663 536.797 60.1858 534.43 61.5705C531.982 62.9963 529.192 63.7292 526.36 63.6905C523.55 63.7255 520.784 62.9925 518.36 61.5705V61.5705ZM531.55 57.5705C533.171 56.6121 534.498 55.2289 535.39 53.5705C536.374 51.726 536.869 49.6606 536.83 47.5705C536.869 45.4805 536.374 43.415 535.39 41.5705C534.498 39.9121 533.171 38.529 531.55 37.5705C529.994 36.6389 528.214 36.1481 526.4 36.1505C524.606 36.1519 522.846 36.6429 521.31 37.5705C519.689 38.529 518.361 39.9121 517.47 41.5705C516.486 43.415 515.991 45.4805 516.03 47.5705C515.991 49.6606 516.486 51.726 517.47 53.5705C518.361 55.2289 519.689 56.6121 521.31 57.5705C522.847 58.4951 524.607 58.9827 526.4 58.9805C528.215 58.9799 529.995 58.4856 531.55 57.5505V57.5705Z" fill="white"/>
<path d="M546.77 32.2698H551.77V36.7498H552C553.066 35.1199 554.519 33.7799 556.23 32.8498C558.184 31.7816 560.384 31.2438 562.61 31.2898C565.178 31.2766 567.695 32.0134 569.85 33.4098C572.087 34.848 573.908 36.8479 575.13 39.2098C576.477 41.7597 577.165 44.6062 577.13 47.4898C577.165 50.3735 576.477 53.22 575.13 55.7698C573.908 58.1318 572.087 60.1317 569.85 61.5698C567.695 62.9663 565.178 63.7031 562.61 63.6898C560.373 63.7349 558.163 63.1936 556.2 62.1198C554.465 61.1891 553.014 59.8071 552 58.1198H551.75L552 62.3498V75.9598H546.78L546.77 32.2698ZM566.77 57.5498C568.337 56.5747 569.609 55.1921 570.45 53.5498C571.395 51.6933 571.869 49.6328 571.83 47.5498C571.869 45.4669 571.395 43.4064 570.45 41.5498C569.609 39.9076 568.337 38.525 566.77 37.5498C565.27 36.617 563.537 36.1249 561.77 36.1298C560.007 36.1254 558.277 36.6063 556.77 37.5198C555.198 38.4878 553.924 39.8723 553.09 41.5198C552.134 43.4082 551.66 45.5038 551.71 47.6198C551.666 49.7256 552.14 51.8099 553.09 53.6898C553.92 55.3398 555.195 56.7251 556.77 57.6898C558.278 58.6004 560.008 59.0779 561.77 59.0698C563.56 59.053 565.309 58.5257 566.81 57.5498H566.77Z" fill="white"/>
<path d="M589.26 61.6004C586.955 60.2159 585.076 58.2229 583.83 55.8404C582.479 53.2668 581.792 50.3968 581.83 47.4904C581.81 44.6672 582.454 41.8788 583.71 39.3504C584.893 36.9369 586.725 34.9007 589 33.4704C591.339 31.9983 594.057 31.2406 596.82 31.2904C599.541 31.2329 602.226 31.9248 604.58 33.2904C606.803 34.6214 608.587 36.5755 609.71 38.9104C610.932 41.5179 611.538 44.3715 611.48 47.2504C611.499 47.664 611.458 48.0782 611.36 48.4804H587.15C587.159 50.5284 587.729 52.5347 588.8 54.2804C589.738 55.7821 591.065 57.0018 592.64 57.8104C594.108 58.5713 595.737 58.9691 597.39 58.9704C601.237 58.9704 604.203 57.0904 606.29 53.3304L610.89 55.5404C609.618 57.947 607.748 59.9858 605.46 61.4604C603.009 62.9013 600.223 63.6734 597.38 63.6998C594.537 63.7261 591.737 63.0056 589.26 61.6104V61.6004ZM605.92 44.1104C605.834 42.8297 605.494 41.5788 604.92 40.4304C604.23 39.1287 603.191 38.0448 601.92 37.3004C600.33 36.384 598.514 35.9367 596.68 36.0104C594.487 35.9713 592.361 36.7645 590.73 38.2304C589.015 39.761 587.884 41.8391 587.53 44.1104H605.92Z" fill="white"/>
<path d="M616.72 32.2699H621.72V37.2699H621.97C622.619 35.4953 623.863 34.0005 625.49 33.0399C627.054 31.9603 628.9 31.3624 630.8 31.3199C632.015 31.3067 633.222 31.5168 634.36 31.9399V37.5199C633.027 36.8564 631.548 36.5399 630.06 36.5999C628.629 36.6013 627.233 37.041 626.06 37.8599C624.796 38.7084 623.765 39.8601 623.06 41.2099C622.321 42.6116 621.943 44.1754 621.96 45.7599V62.7599H616.74L616.72 32.2699Z" fill="white"/>
<path d="M657.19 62.3502C655.015 61.3772 653.088 59.9259 651.552 58.1044C650.017 56.2828 648.912 54.1382 648.32 51.8302L653.32 49.8302C653.932 52.3175 655.281 54.5621 657.19 56.2702C658.977 57.9134 661.323 58.8145 663.75 58.7902C666.089 58.867 668.383 58.14 670.25 56.7302C671.108 56.0752 671.795 55.2237 672.255 54.2473C672.714 53.2709 672.932 52.1984 672.89 51.1202C672.917 50.1632 672.73 49.2123 672.342 48.3369C671.955 47.4615 671.377 46.6836 670.65 46.0602C668.466 44.3643 665.978 43.1016 663.32 42.3402L660.56 41.3402C657.756 40.4181 655.168 38.9384 652.95 36.9902C651.943 36.0213 651.157 34.8455 650.648 33.5438C650.139 32.2421 649.918 30.8455 650 29.4502C649.99 27.3897 650.589 25.3721 651.72 23.6502C652.887 21.8222 654.52 20.338 656.45 19.3502C658.563 18.2608 660.913 17.7111 663.29 17.7502C665.61 17.7028 667.908 18.1994 670 19.2002C671.737 20.0181 673.283 21.1898 674.54 22.6402C675.563 23.8087 676.345 25.1681 676.84 26.6402L671.99 28.7202C671.441 26.9182 670.302 25.3527 668.758 24.274C667.213 23.1953 665.351 22.6658 663.47 22.7702C661.385 22.7156 659.345 23.3873 657.7 24.6702C656.949 25.2214 656.34 25.9432 655.923 26.7759C655.506 27.6087 655.292 28.5287 655.3 29.4602C655.28 30.2682 655.45 31.0696 655.798 31.7994C656.145 32.5291 656.66 33.1667 657.3 33.6602C659.165 34.9967 661.24 36.0107 663.44 36.6602L666.26 37.6602C669.495 38.7272 672.472 40.4574 675 42.7402C676.075 43.8179 676.911 45.1089 677.455 46.53C678 47.9511 678.24 49.4705 678.16 50.9902C678.253 53.5378 677.493 56.0435 676 58.1102C674.583 60.0066 672.669 61.4741 670.47 62.3502C668.291 63.2455 665.957 63.7042 663.6 63.7002C661.392 63.7098 659.207 63.2496 657.19 62.3502V62.3502Z" fill="white"/>
<path d="M690.81 63.0604C689.816 62.6716 688.909 62.0905 688.14 61.3504C687.33 60.5763 686.71 59.6247 686.33 58.5704C685.918 57.354 685.721 56.0746 685.75 54.7904V37.0004H680.35V32.2704H685.75V23.1904H690.9V32.2704H698.39V37.0004H690.9V53.5704C690.806 54.9553 691.195 56.33 692 57.4604C692.379 57.9328 692.868 58.3054 693.424 58.5459C693.98 58.7864 694.586 58.8875 695.19 58.8404C696.352 58.8703 697.499 58.5722 698.5 57.9804V62.9804C697.895 63.214 697.269 63.3881 696.63 63.5004C695.85 63.6222 695.06 63.6757 694.27 63.6604C693.089 63.6896 691.913 63.4857 690.81 63.0604V63.0604Z" fill="white"/>
<path d="M706.52 60.4405C704.573 58.2672 703.6 55.2672 703.6 51.4405V32.2705H708.82V50.5605C708.82 56.1605 711.333 58.9605 716.36 58.9605C717.975 58.9803 719.554 58.4865 720.87 57.5505C722.201 56.617 723.26 55.3471 723.94 53.8705C724.65 52.374 725.012 50.7366 725 49.0805V32.2705H730.15V62.7105H725.24V58.1705H725C724.007 59.8123 722.6 61.1642 720.92 62.0905C719.148 63.145 717.122 63.698 715.06 63.6905C711.31 63.6905 708.46 62.6005 706.52 60.4405Z" fill="white"/>
<path d="M742.44 61.6005C740.197 60.1697 738.374 58.1679 737.16 55.8005C735.819 53.2374 735.132 50.3829 735.16 47.4905C735.134 44.5951 735.821 41.7377 737.16 39.1705C738.372 36.7958 740.194 34.7868 742.44 33.3505C744.603 31.9736 747.116 31.248 749.68 31.2605C751.905 31.2259 754.102 31.763 756.06 32.8205C757.792 33.7251 759.254 35.0703 760.3 36.7205H760.54L760.3 32.5505V18.7705H765.45V62.7105H760.54V58.1705H760.3C759.278 59.866 757.812 61.2493 756.06 62.1705C754.105 63.2374 751.907 63.7784 749.68 63.7405C747.111 63.7381 744.597 62.9951 742.44 61.6005V61.6005ZM755.44 57.6005C757.018 56.6387 758.293 55.2526 759.12 53.6005C760.07 51.7206 760.544 49.6363 760.5 47.5305C760.55 45.4145 760.076 43.3189 759.12 41.4305C758.291 39.7797 757.016 38.394 755.44 37.4305C753.934 36.514 752.203 36.0329 750.44 36.0405C748.673 36.0339 746.94 36.5261 745.44 37.4605C743.873 38.4357 742.601 39.8183 741.76 41.4605C740.815 43.3171 740.341 45.3776 740.38 47.4605C740.341 49.5434 740.815 51.604 741.76 53.4605C742.601 55.1027 743.873 56.4853 745.44 57.4605C746.941 58.3919 748.674 58.8806 750.44 58.8705C752.207 58.9163 753.952 58.4696 755.48 57.5805L755.44 57.6005Z" fill="white"/>
<path d="M777.88 61.6006C775.575 60.2161 773.697 58.2231 772.45 55.8406C771.1 53.2669 770.412 50.397 770.45 47.4906C770.433 44.6689 771.073 41.882 772.32 39.3506C773.493 36.9406 775.31 34.9021 777.57 33.4606C779.91 31.9895 782.627 31.232 785.39 31.2806C788.114 31.2233 790.802 31.9151 793.16 33.2806C795.381 34.6118 797.161 36.5661 798.28 38.9006C799.51 41.5056 800.12 44.3604 800.06 47.2406C800.079 47.6543 800.038 48.0684 799.94 48.4706H775.76C775.767 50.5202 776.342 52.5278 777.42 54.2706C778.357 55.7697 779.68 56.989 781.25 57.8006C782.719 58.56 784.347 58.9577 786 58.9606C789.84 58.9606 792.804 57.0806 794.89 53.3206L799.5 55.5306C798.228 57.9373 796.358 59.976 794.07 61.4506C791.619 62.8915 788.833 63.6636 785.99 63.69C783.147 63.7163 780.347 62.9958 777.87 61.6006H777.88ZM794.54 44.1106C794.453 42.83 794.113 41.5792 793.54 40.4306C792.852 39.128 791.813 38.0438 790.54 37.3006C788.947 36.3828 787.127 35.9355 785.29 36.0106C783.098 35.9745 780.973 36.7673 779.34 38.2306C777.628 39.7622 776.501 41.8404 776.15 44.1106H794.54Z" fill="white"/>
<path d="M805.33 32.2701H810.33V36.8101H810.58C811.544 35.1562 812.946 33.7999 814.63 32.8901C816.414 31.8378 818.449 31.2851 820.52 31.2901C824.24 31.2901 827.07 32.3801 829.02 34.5401C830.97 36.7001 831.93 39.6801 831.93 43.4401V62.7101H826.78V44.2401C826.78 38.7601 824.223 36.0167 819.11 36.0101C817.523 35.997 815.973 36.4949 814.69 37.4301C813.393 38.3811 812.36 39.6479 811.69 41.1101C810.983 42.6042 810.617 44.2371 810.62 45.8901V62.7101H805.4L805.33 32.2701Z" fill="white"/>
<path d="M845.49 63.0604C844.498 62.6731 843.594 62.0917 842.83 61.3504C842.012 60.5868 841.385 59.6413 841 58.5904C840.584 57.3746 840.384 56.0952 840.41 54.8104V37.0004H835V32.2704H840.4V23.1904H845.56V32.2704H853.04V37.0004H845.56V53.5704C845.437 54.9435 845.79 56.3172 846.56 57.4604C846.941 57.9308 847.43 58.302 847.985 58.5423C848.541 58.7826 849.146 58.8849 849.75 58.8404C850.912 58.8719 852.06 58.5738 853.06 57.9804V62.9804C852.455 63.2153 851.829 63.3895 851.19 63.5004C850.41 63.6226 849.62 63.6761 848.83 63.6604C847.689 63.6723 846.556 63.4688 845.49 63.0604V63.0604Z" fill="white"/>
<path d="M881 60.6805C877.563 58.7236 874.729 55.8592 872.81 52.4005C870.804 48.8445 869.77 44.8231 869.81 40.7405C869.771 36.658 870.806 32.637 872.81 29.0805C874.729 25.6217 877.563 22.7573 881 20.8005C884.508 18.7917 888.488 17.7561 892.53 17.8005C895.647 17.762 898.734 18.4 901.58 19.6705C904.274 20.9066 906.664 22.7193 908.58 24.9805L904.9 28.6005C903.428 26.7311 901.551 25.2199 899.41 24.1805C897.238 23.2103 894.879 22.729 892.5 22.7705C889.451 22.7465 886.449 23.5187 883.79 25.0105C881.142 26.507 878.953 28.6994 877.46 31.3505C875.845 34.2227 875.03 37.4758 875.1 40.7705C875.03 44.0651 875.845 47.3183 877.46 50.1905C878.961 52.8368 881.157 55.0223 883.81 56.5105C886.469 58.0023 889.471 58.7744 892.52 58.7505C895.142 58.7617 897.732 58.1759 900.093 57.0376C902.455 55.8993 904.526 54.2383 906.15 52.1805L909.89 55.8705C907.846 58.3091 905.289 60.2657 902.4 61.6005C899.307 63.0363 895.931 63.7607 892.52 63.7205C888.477 63.7558 884.499 62.706 881 60.6805V60.6805Z" fill="white"/>
<path d="M915 18.7705H920.22V62.7105H915V18.7705Z" fill="white"/>
<path d="M929.86 60.4405C927.92 58.2672 926.95 55.2672 926.95 51.4405V32.2705H932.16V50.5605C932.16 56.1605 934.677 58.9605 939.71 58.9605C941.325 58.9803 942.904 58.4865 944.22 57.5505C945.548 56.6141 946.607 55.3451 947.29 53.8705C947.998 52.3732 948.364 50.7369 948.36 49.0805V32.2705H953.51V62.7105H948.61V58.1705H948.36C947.367 59.8123 945.96 61.1642 944.28 62.0905C942.509 63.1464 940.483 63.6995 938.42 63.6905C934.66 63.6905 931.8 62.6005 929.86 60.4405Z" fill="white"/>
<path d="M970 62.1205C968.266 61.1897 966.815 59.8077 965.8 58.1205H965.55V62.6605H960.55V18.7705H965.77V32.5805L965.52 36.7505H965.77C966.836 35.1206 968.289 33.7806 970 32.8505C971.954 31.7823 974.154 31.2444 976.38 31.2905C978.949 31.2772 981.465 32.014 983.62 33.4105C985.857 34.8486 987.678 36.8486 988.9 39.2105C990.247 41.7604 990.935 44.6069 990.9 47.4905C990.935 50.3742 990.247 53.2206 988.9 55.7705C987.678 58.1325 985.857 60.1324 983.62 61.5705C981.465 62.967 978.949 63.7038 976.38 63.6905C974.153 63.7303 971.954 63.1892 970 62.1205V62.1205ZM980.6 57.5505C982.172 56.5787 983.448 55.1955 984.29 53.5505C985.231 51.6924 985.705 49.633 985.67 47.5505C985.705 45.4681 985.231 43.4086 984.29 41.5505C983.448 39.9056 982.172 38.5223 980.6 37.5505C979.1 36.6161 977.367 36.1239 975.6 36.1305C973.837 36.1245 972.107 36.6055 970.6 37.5205C969.028 38.4885 967.754 39.873 966.92 41.5205C965.964 43.4089 965.49 45.5045 965.54 47.6205C965.497 49.7263 965.971 51.8106 966.92 53.6905C967.751 55.3404 969.025 56.7258 970.6 57.6905C972.108 58.6025 973.838 59.0801 975.6 59.0705C977.377 59.0477 979.111 58.5206 980.6 57.5505V57.5505Z" fill="white"/>
<path d="M998.37 61.2302C996.22 59.7274 994.572 57.6124 993.64 55.1602L998.25 53.1602C998.949 54.936 1000.15 56.4689 1001.71 57.5702C1003.14 58.578 1004.84 59.1162 1006.59 59.1102C1008.31 59.1762 1010.01 58.727 1011.47 57.8202C1012.03 57.5097 1012.51 57.0581 1012.85 56.5096C1013.19 55.961 1013.38 55.3342 1013.4 54.6902C1013.42 54.1117 1013.29 53.5378 1013.04 53.016C1012.79 52.4943 1012.42 52.0398 1011.96 51.6902C1010.47 50.6958 1008.79 50.0154 1007.02 49.6902L1002.85 48.6402C1000.69 48.1775 998.685 47.1919 997 45.7702C996.206 45.0927 995.576 44.244 995.157 43.288C994.737 42.3319 994.54 41.2933 994.58 40.2502C994.538 38.4941 995.111 36.7784 996.2 35.4002C997.344 34.0088 998.839 32.9488 1000.53 32.3302C1002.42 31.6371 1004.41 31.2981 1006.42 31.3302C1008.92 31.3034 1011.38 31.9272 1013.56 33.1402C1015.64 34.2632 1017.26 36.078 1018.14 38.2702L1013.53 40.2702C1012.95 38.8662 1011.88 37.7147 1010.53 37.0202C1009.16 36.3093 1007.63 35.9486 1006.08 35.9702C1004.56 35.9513 1003.06 36.3564 1001.75 37.1402C1001.18 37.4161 1000.71 37.8416 1000.37 38.3705C1000.03 38.8994 999.837 39.5115 999.82 40.1402C999.802 40.6322 999.908 41.1207 1000.13 41.561C1000.35 42.0013 1000.68 42.3792 1001.08 42.6602C1002.31 43.4443 1003.66 44.0062 1005.08 44.3202L1009.62 45.4202C1012.15 45.9403 1014.5 47.1398 1016.4 48.8902C1017.12 49.6085 1017.69 50.4646 1018.08 51.4078C1018.46 52.3509 1018.65 53.3617 1018.64 54.3802C1018.66 56.101 1018.12 57.7807 1017.1 59.1702C1016 60.6612 1014.52 61.8259 1012.81 62.5402C1010.83 63.3873 1008.7 63.8065 1006.55 63.7702C1003.62 63.8281 1000.75 62.9371 998.37 61.2302V61.2302Z" fill="white"/>
<path d="M151.398 93.2048H162.494C164.043 93.2048 165.491 93.5633 166.838 94.2801C168.186 94.9969 169.261 95.9862 170.064 97.2478C170.896 98.5094 171.311 99.9287 171.311 101.506C171.311 102.997 170.924 104.301 170.15 105.42C169.376 106.538 168.344 107.398 167.053 108V108.172C168.602 108.688 169.863 109.592 170.838 110.882C171.842 112.144 172.344 113.606 172.344 115.269C172.344 116.932 171.914 118.437 171.053 119.785C170.193 121.104 169.061 122.136 167.656 122.882C166.251 123.627 164.731 124 163.097 124H151.398V93.2048ZM162.494 106.538C163.527 106.538 164.43 106.294 165.204 105.807C166.007 105.319 166.609 104.703 167.01 103.957C167.441 103.183 167.656 102.395 167.656 101.592C167.656 100.818 167.455 100.058 167.053 99.3123C166.652 98.5381 166.064 97.9073 165.29 97.4198C164.545 96.9324 163.67 96.6886 162.666 96.6886H155.054V106.538H162.494ZM163.269 120.516C164.329 120.516 165.261 120.258 166.064 119.742C166.867 119.226 167.484 118.566 167.914 117.764C168.372 116.932 168.602 116.086 168.602 115.226C168.602 114.366 168.372 113.534 167.914 112.731C167.484 111.9 166.838 111.24 165.978 110.753C165.147 110.237 164.186 109.979 163.097 109.979H155.054V120.516H163.269ZM176.624 93.2048H180.28V102.839L180.108 105.893H180.28C180.882 104.775 181.814 103.843 183.075 103.097C184.366 102.352 185.756 101.979 187.247 101.979C189.914 101.979 191.921 102.753 193.269 104.301C194.616 105.85 195.29 107.914 195.29 110.495V124H191.677V111.054C191.677 109.076 191.19 107.628 190.215 106.71C189.269 105.764 187.993 105.291 186.387 105.291C185.24 105.291 184.194 105.635 183.247 106.323C182.33 106.982 181.599 107.871 181.054 108.99C180.538 110.079 180.28 111.212 180.28 112.387V124H176.624V93.2048ZM207.154 124.688C205.605 124.688 204.2 124.387 202.939 123.785C201.706 123.154 200.731 122.294 200.014 121.204C199.326 120.086 198.982 118.839 198.982 117.462C198.982 115.197 199.827 113.434 201.519 112.172C203.24 110.911 205.433 110.28 208.1 110.28C209.419 110.28 210.609 110.423 211.67 110.71C212.73 110.997 213.576 111.312 214.207 111.656V110.538C214.207 109.506 213.935 108.588 213.39 107.785C212.874 106.954 212.171 106.323 211.282 105.893C210.394 105.434 209.433 105.205 208.401 105.205C205.964 105.205 204.1 106.194 202.81 108.172L199.756 106.151C200.645 104.832 201.82 103.814 203.283 103.097C204.745 102.352 206.394 101.979 208.229 101.979C211.153 101.979 213.462 102.767 215.153 104.344C216.845 105.921 217.691 108.043 217.691 110.71V124H214.207V120.86H214.035C213.347 121.95 212.415 122.867 211.239 123.613C210.064 124.33 208.702 124.688 207.154 124.688ZM207.455 121.462C208.602 121.462 209.691 121.161 210.723 120.559C211.756 119.957 212.587 119.14 213.218 118.108C213.877 117.075 214.207 115.957 214.207 114.753C212.601 113.721 210.752 113.204 208.659 113.204C206.852 113.204 205.404 113.62 204.315 114.452C203.254 115.255 202.724 116.287 202.724 117.548C202.724 118.695 203.197 119.642 204.143 120.387C205.089 121.104 206.193 121.462 207.455 121.462ZM222.7 102.667H226.184V106.151H226.356C226.757 104.975 227.574 104 228.807 103.226C230.069 102.423 231.316 102.022 232.549 102.022C233.438 102.022 234.27 102.151 235.044 102.409V106.366C234.27 105.936 233.266 105.721 232.033 105.721C231.03 105.721 230.083 106.022 229.194 106.624C228.334 107.197 227.646 107.972 227.13 108.946C226.614 109.921 226.356 110.982 226.356 112.129V124H222.7V102.667ZM244.535 124.688C242.987 124.688 241.582 124.387 240.32 123.785C239.087 123.154 238.112 122.294 237.396 121.204C236.707 120.086 236.363 118.839 236.363 117.462C236.363 115.197 237.209 113.434 238.901 112.172C240.621 110.911 242.815 110.28 245.481 110.28C246.8 110.28 247.99 110.423 249.051 110.71C250.112 110.997 250.958 111.312 251.589 111.656V110.538C251.589 109.506 251.317 108.588 250.772 107.785C250.256 106.954 249.553 106.323 248.664 105.893C247.775 105.434 246.815 105.205 245.783 105.205C243.345 105.205 241.482 106.194 240.191 108.172L237.138 106.151C238.026 104.832 239.202 103.814 240.664 103.097C242.127 102.352 243.775 101.979 245.611 101.979C248.535 101.979 250.843 102.767 252.535 104.344C254.227 105.921 255.073 108.043 255.073 110.71V124H251.589V120.86H251.417C250.729 121.95 249.797 122.867 248.621 123.613C247.446 124.33 246.084 124.688 244.535 124.688ZM244.836 121.462C245.983 121.462 247.073 121.161 248.105 120.559C249.137 119.957 249.969 119.14 250.6 118.108C251.259 117.075 251.589 115.957 251.589 114.753C249.983 113.721 248.134 113.204 246.041 113.204C244.234 113.204 242.786 113.62 241.697 114.452C240.636 115.255 240.105 116.287 240.105 117.548C240.105 118.695 240.578 119.642 241.525 120.387C242.471 121.104 243.575 121.462 244.836 121.462ZM267.877 124.344C267.016 124.344 266.214 124.201 265.468 123.914C264.751 123.627 264.135 123.24 263.619 122.753C263.045 122.208 262.615 121.577 262.328 120.86C262.07 120.115 261.941 119.24 261.941 118.237V105.979H258.156V102.667H261.941V96.3016H265.554V102.667H270.801V105.979H265.554V117.333C265.554 118.538 265.798 119.427 266.285 120C266.773 120.631 267.518 120.946 268.522 120.946C269.411 120.946 270.185 120.746 270.844 120.344V123.871C270.386 124.043 269.941 124.158 269.511 124.215C269.11 124.301 268.565 124.344 267.877 124.344ZM277.437 98.194C276.72 98.194 276.104 97.9359 275.587 97.4198C275.071 96.9037 274.813 96.2872 274.813 95.5704C274.813 94.8536 275.071 94.2371 275.587 93.721C276.104 93.2048 276.72 92.9468 277.437 92.9468C278.154 92.9468 278.77 93.2048 279.286 93.721C279.802 94.2371 280.061 94.8536 280.061 95.5704C280.061 96.2872 279.802 96.9037 279.286 97.4198C278.799 97.9359 278.182 98.194 277.437 98.194ZM275.63 102.667H279.243V124H275.63V102.667ZM291.115 93.2048H295.115L302.727 115.527L303.803 118.581H303.975L305.05 115.527L312.964 93.2048H317.007L305.738 124H301.996L291.115 93.2048ZM321.581 98.194C320.864 98.194 320.248 97.9359 319.732 97.4198C319.215 96.9037 318.957 96.2872 318.957 95.5704C318.957 94.8536 319.215 94.2371 319.732 93.721C320.248 93.2048 320.864 92.9468 321.581 92.9468C322.298 92.9468 322.914 93.2048 323.43 93.721C323.947 94.2371 324.205 94.8536 324.205 95.5704C324.205 96.2872 323.947 96.9037 323.43 97.4198C322.943 97.9359 322.326 98.194 321.581 98.194ZM319.775 102.667H323.387V124H319.775V102.667ZM337.785 124.688C335.95 124.688 334.258 124.201 332.71 123.226C331.161 122.251 329.928 120.903 329.011 119.183C328.093 117.434 327.635 115.484 327.635 113.334C327.635 111.183 328.093 109.248 329.011 107.527C329.928 105.778 331.161 104.416 332.71 103.441C334.258 102.466 335.95 101.979 337.785 101.979C339.448 101.979 340.939 102.352 342.258 103.097C343.577 103.814 344.566 104.717 345.226 105.807H345.398L345.226 102.882V93.2048H348.839V124H345.398V120.817H345.226C344.566 121.936 343.577 122.867 342.258 123.613C340.939 124.33 339.448 124.688 337.785 124.688ZM338.344 121.376C339.606 121.376 340.767 121.061 341.828 120.43C342.918 119.771 343.778 118.824 344.409 117.592C345.068 116.359 345.398 114.939 345.398 113.334C345.398 111.699 345.068 110.28 344.409 109.076C343.778 107.843 342.918 106.911 341.828 106.28C340.767 105.62 339.606 105.291 338.344 105.291C337.082 105.291 335.907 105.62 334.817 106.28C333.756 106.939 332.896 107.886 332.237 109.119C331.606 110.323 331.29 111.728 331.29 113.334C331.29 114.939 331.606 116.359 332.237 117.592C332.896 118.796 333.756 119.728 334.817 120.387C335.907 121.047 337.082 121.376 338.344 121.376ZM360.703 122.624L351.843 102.667H355.799L362.423 118.366H362.509L368.917 102.667H372.874L359.541 133.29H355.799L360.703 122.624ZM381.672 124.688C380.123 124.688 378.718 124.387 377.457 123.785C376.224 123.154 375.249 122.294 374.532 121.204C373.844 120.086 373.5 118.839 373.5 117.462C373.5 115.197 374.346 113.434 376.037 112.172C377.758 110.911 379.951 110.28 382.618 110.28C383.937 110.28 385.127 110.423 386.188 110.71C387.249 110.997 388.094 111.312 388.725 111.656V110.538C388.725 109.506 388.453 108.588 387.908 107.785C387.392 106.954 386.689 106.323 385.801 105.893C384.912 105.434 383.951 105.205 382.919 105.205C380.482 105.205 378.618 106.194 377.328 108.172L374.274 106.151C375.163 104.832 376.338 103.814 377.801 103.097C379.263 102.352 380.912 101.979 382.747 101.979C385.672 101.979 387.98 102.767 389.672 104.344C391.363 105.921 392.209 108.043 392.209 110.71V124H388.725V120.86H388.553C387.865 121.95 386.933 122.867 385.758 123.613C384.582 124.33 383.22 124.688 381.672 124.688ZM381.973 121.462C383.12 121.462 384.209 121.161 385.241 120.559C386.274 119.957 387.105 119.14 387.736 118.108C388.396 117.075 388.725 115.957 388.725 114.753C387.12 113.721 385.27 113.204 383.177 113.204C381.371 113.204 379.923 113.62 378.833 114.452C377.772 115.255 377.242 116.287 377.242 117.548C377.242 118.695 377.715 119.642 378.661 120.387C379.607 121.104 380.711 121.462 381.973 121.462ZM397.046 102.667H400.53V105.807H400.702C401.39 104.717 402.379 103.814 403.67 103.097C404.96 102.352 406.451 101.979 408.143 101.979C409.978 101.979 411.669 102.481 413.218 103.484C414.766 104.459 415.999 105.807 416.917 107.527C417.834 109.248 418.293 111.183 418.293 113.334C418.293 115.484 417.834 117.419 416.917 119.14C415.999 120.86 414.766 122.222 413.218 123.226C411.669 124.201 409.978 124.688 408.143 124.688C406.451 124.688 404.946 124.33 403.627 123.613C402.336 122.867 401.361 121.936 400.702 120.817H400.53L400.702 123.785V133.29H397.046V102.667ZM407.583 121.376C408.845 121.376 410.006 121.047 411.067 120.387C412.157 119.728 413.017 118.796 413.648 117.592C414.307 116.359 414.637 114.939 414.637 113.334C414.637 111.728 414.307 110.323 413.648 109.119C413.017 107.886 412.157 106.939 411.067 106.28C410.006 105.62 408.845 105.291 407.583 105.291C406.322 105.291 405.146 105.62 404.057 106.28C402.996 106.911 402.136 107.843 401.476 109.076C400.845 110.28 400.53 111.699 400.53 113.334C400.53 114.939 400.845 116.359 401.476 117.592C402.136 118.824 402.996 119.771 404.057 120.43C405.146 121.061 406.322 121.376 407.583 121.376ZM431.924 124.688C429.86 124.688 428.011 124.201 426.376 123.226C424.77 122.251 423.509 120.903 422.591 119.183C421.674 117.462 421.215 115.513 421.215 113.334C421.215 111.269 421.645 109.377 422.505 107.656C423.365 105.907 424.584 104.531 426.161 103.527C427.767 102.495 429.602 101.979 431.666 101.979C433.731 101.979 435.537 102.452 437.086 103.398C438.663 104.316 439.867 105.62 440.698 107.312C441.53 109.004 441.946 110.954 441.946 113.161C441.946 113.563 441.917 113.85 441.86 114.022H424.914C424.971 115.627 425.358 116.989 426.075 118.108C426.792 119.197 427.681 120.014 428.742 120.559C429.831 121.104 430.95 121.376 432.096 121.376C434.792 121.376 436.871 120.057 438.333 117.419L441.559 118.968C440.641 120.688 439.365 122.079 437.731 123.14C436.125 124.172 434.19 124.688 431.924 124.688ZM438.075 110.968C438.018 110.108 437.774 109.248 437.344 108.387C436.914 107.527 436.211 106.796 435.236 106.194C434.29 105.592 433.071 105.291 431.58 105.291C429.975 105.291 428.584 105.807 427.408 106.839C426.233 107.871 425.487 109.248 425.172 110.968H438.075ZM455.782 124.688C453.717 124.688 451.868 124.201 450.233 123.226C448.628 122.251 447.366 120.903 446.448 119.183C445.531 117.462 445.072 115.513 445.072 113.334C445.072 111.269 445.502 109.377 446.362 107.656C447.223 105.907 448.441 104.531 450.018 103.527C451.624 102.495 453.459 101.979 455.524 101.979C457.588 101.979 459.394 102.452 460.943 103.398C462.52 104.316 463.724 105.62 464.556 107.312C465.387 109.004 465.803 110.954 465.803 113.161C465.803 113.563 465.774 113.85 465.717 114.022H448.771C448.828 115.627 449.215 116.989 449.932 118.108C450.649 119.197 451.538 120.014 452.599 120.559C453.688 121.104 454.807 121.376 455.954 121.376C458.649 121.376 460.728 120.057 462.19 117.419L465.416 118.968C464.498 120.688 463.222 122.079 461.588 123.14C459.982 124.172 458.047 124.688 455.782 124.688ZM461.932 110.968C461.875 110.108 461.631 109.248 461.201 108.387C460.771 107.527 460.068 106.796 459.093 106.194C458.147 105.592 456.929 105.291 455.437 105.291C453.832 105.291 452.441 105.807 451.266 106.839C450.09 107.871 449.344 109.248 449.029 110.968H461.932ZM477.508 124.344C476.648 124.344 475.845 124.201 475.1 123.914C474.383 123.627 473.766 123.24 473.25 122.753C472.677 122.208 472.247 121.577 471.96 120.86C471.702 120.115 471.573 119.24 471.573 118.237V105.979H467.788V102.667H471.573V96.3016H475.186V102.667H480.433V105.979H475.186V117.333C475.186 118.538 475.43 119.427 475.917 120C476.404 120.631 477.15 120.946 478.153 120.946C479.042 120.946 479.817 120.746 480.476 120.344V123.871C480.017 124.043 479.573 124.158 479.143 124.215C478.741 124.301 478.196 124.344 477.508 124.344ZM484.918 93.2048H488.574V102.839L488.402 105.893H488.574C489.176 104.775 490.108 103.843 491.37 103.097C492.66 102.352 494.051 101.979 495.542 101.979C498.208 101.979 500.215 102.753 501.563 104.301C502.911 105.85 503.584 107.914 503.584 110.495V124H499.972V111.054C499.972 109.076 499.484 107.628 498.509 106.71C497.563 105.764 496.287 105.291 494.681 105.291C493.534 105.291 492.488 105.635 491.542 106.323C490.624 106.982 489.893 107.871 489.348 108.99C488.832 110.079 488.574 111.212 488.574 112.387V124H484.918V93.2048ZM519.461 93.2048H528.794C531.948 93.2048 534.701 93.8643 537.052 95.1833C539.403 96.4736 541.21 98.28 542.471 100.603C543.733 102.925 544.364 105.592 544.364 108.602C544.364 111.613 543.733 114.28 542.471 116.602C541.21 118.925 539.403 120.746 537.052 122.065C534.701 123.355 531.948 124 528.794 124H519.461V93.2048ZM528.794 120.516C532.436 120.516 535.317 119.47 537.439 117.376C539.561 115.283 540.622 112.359 540.622 108.602C540.622 104.846 539.561 101.922 537.439 99.8284C535.317 97.7352 532.436 96.6886 528.794 96.6886H523.117V120.516H528.794ZM557.762 124.688C555.698 124.688 553.848 124.201 552.214 123.226C550.608 122.251 549.347 120.903 548.429 119.183C547.512 117.462 547.053 115.513 547.053 113.334C547.053 111.269 547.483 109.377 548.343 107.656C549.203 105.907 550.422 104.531 551.999 103.527C553.605 102.495 555.44 101.979 557.504 101.979C559.569 101.979 561.375 102.452 562.924 103.398C564.501 104.316 565.705 105.62 566.536 107.312C567.368 109.004 567.784 110.954 567.784 113.161C567.784 113.563 567.755 113.85 567.698 114.022H550.752C550.809 115.627 551.196 116.989 551.913 118.108C552.63 119.197 553.519 120.014 554.58 120.559C555.669 121.104 556.787 121.376 557.934 121.376C560.63 121.376 562.708 120.057 564.171 117.419L567.397 118.968C566.479 120.688 565.203 122.079 563.569 123.14C561.963 124.172 560.028 124.688 557.762 124.688ZM563.913 110.968C563.855 110.108 563.612 109.248 563.182 108.387C562.751 107.527 562.049 106.796 561.074 106.194C560.128 105.592 558.909 105.291 557.418 105.291C555.813 105.291 554.422 105.807 553.246 106.839C552.071 107.871 551.325 109.248 551.01 110.968H563.913ZM581.619 124.688C579.555 124.688 577.705 124.201 576.071 123.226C574.465 122.251 573.204 120.903 572.286 119.183C571.369 117.462 570.91 115.513 570.91 113.334C570.91 111.269 571.34 109.377 572.2 107.656C573.06 105.907 574.279 104.531 575.856 103.527C577.462 102.495 579.297 101.979 581.361 101.979C583.426 101.979 585.232 102.452 586.781 103.398C588.358 104.316 589.562 105.62 590.393 107.312C591.225 109.004 591.641 110.954 591.641 113.161C591.641 113.563 591.612 113.85 591.555 114.022H574.609C574.666 115.627 575.053 116.989 575.77 118.108C576.487 119.197 577.376 120.014 578.437 120.559C579.526 121.104 580.645 121.376 581.791 121.376C584.487 121.376 586.566 120.057 588.028 117.419L591.254 118.968C590.336 120.688 589.06 122.079 587.426 123.14C585.82 124.172 583.885 124.688 581.619 124.688ZM587.77 110.968C587.712 110.108 587.469 109.248 587.039 108.387C586.609 107.527 585.906 106.796 584.931 106.194C583.985 105.592 582.766 105.291 581.275 105.291C579.67 105.291 578.279 105.807 577.103 106.839C575.928 107.871 575.182 109.248 574.867 110.968H587.77ZM595.761 102.667H599.245V105.85H599.417C600.019 104.76 600.951 103.843 602.213 103.097C603.503 102.352 604.808 101.979 606.127 101.979C607.732 101.979 609.109 102.366 610.256 103.14C611.431 103.886 612.277 104.918 612.793 106.237C613.596 104.947 614.628 103.914 615.89 103.14C617.152 102.366 618.6 101.979 620.234 101.979C622.729 101.979 624.607 102.739 625.868 104.258C627.13 105.778 627.761 107.871 627.761 110.538V124H624.105V111.097C624.105 109.004 623.703 107.513 622.901 106.624C622.126 105.735 620.922 105.291 619.288 105.291C618.198 105.291 617.209 105.62 616.32 106.28C615.46 106.911 614.786 107.757 614.299 108.817C613.811 109.878 613.567 110.997 613.567 112.172V124H609.955V111.097C609.955 109.004 609.553 107.513 608.75 106.624C607.947 105.735 606.743 105.291 605.137 105.291C604.019 105.291 603.03 105.62 602.17 106.28C601.31 106.939 600.636 107.8 600.148 108.86C599.661 109.921 599.417 111.054 599.417 112.258V124H595.761V102.667ZM642.438 124.688C640.374 124.688 638.524 124.201 636.89 123.226C635.284 122.251 634.023 120.903 633.105 119.183C632.188 117.462 631.729 115.513 631.729 113.334C631.729 111.269 632.159 109.377 633.019 107.656C633.879 105.907 635.098 104.531 636.675 103.527C638.281 102.495 640.116 101.979 642.18 101.979C644.245 101.979 646.051 102.452 647.599 103.398C649.176 104.316 650.381 105.62 651.212 107.312C652.044 109.004 652.46 110.954 652.46 113.161C652.46 113.563 652.431 113.85 652.374 114.022H635.428C635.485 115.627 635.872 116.989 636.589 118.108C637.306 119.197 638.195 120.014 639.256 120.559C640.345 121.104 641.463 121.376 642.61 121.376C645.306 121.376 647.384 120.057 648.847 117.419L652.072 118.968C651.155 120.688 649.879 122.079 648.245 123.14C646.639 124.172 644.703 124.688 642.438 124.688ZM648.589 110.968C648.531 110.108 648.288 109.248 647.858 108.387C647.427 107.527 646.725 106.796 645.75 106.194C644.804 105.592 643.585 105.291 642.094 105.291C640.488 105.291 639.098 105.807 637.922 106.839C636.747 107.871 636.001 109.248 635.686 110.968H648.589ZM665.736 124.688C663.901 124.688 662.209 124.201 660.661 123.226C659.113 122.251 657.88 120.903 656.962 119.183C656.045 117.434 655.586 115.484 655.586 113.334C655.586 111.183 656.045 109.248 656.962 107.527C657.88 105.778 659.113 104.416 660.661 103.441C662.209 102.466 663.901 101.979 665.736 101.979C667.399 101.979 668.89 102.352 670.209 103.097C671.528 103.814 672.517 104.717 673.177 105.807H673.349L673.177 102.882V93.2048H676.79V124H673.349V120.817H673.177C672.517 121.936 671.528 122.867 670.209 123.613C668.89 124.33 667.399 124.688 665.736 124.688ZM666.295 121.376C667.557 121.376 668.718 121.061 669.779 120.43C670.869 119.771 671.729 118.824 672.36 117.592C673.019 116.359 673.349 114.939 673.349 113.334C673.349 111.699 673.019 110.28 672.36 109.076C671.729 107.843 670.869 106.911 669.779 106.28C668.718 105.62 667.557 105.291 666.295 105.291C665.034 105.291 663.858 105.62 662.769 106.28C661.708 106.939 660.847 107.886 660.188 109.119C659.557 110.323 659.242 111.728 659.242 113.334C659.242 114.939 659.557 116.359 660.188 117.592C660.847 118.796 661.708 119.728 662.769 120.387C663.858 121.047 665.034 121.376 666.295 121.376ZM702.756 124.688C700.549 124.688 698.584 124.186 696.864 123.183C695.144 122.151 693.81 120.731 692.864 118.925C691.918 117.09 691.445 114.982 691.445 112.602V93.2048H695.101V112.774C695.101 115.269 695.76 117.305 697.079 118.882C698.398 120.43 700.29 121.204 702.756 121.204C705.222 121.204 707.115 120.43 708.434 118.882C709.781 117.305 710.455 115.269 710.455 112.774V93.2048H714.111V112.602C714.111 114.982 713.652 117.09 712.735 118.925C711.846 120.76 710.541 122.179 708.821 123.183C707.1 124.186 705.079 124.688 702.756 124.688ZM719.499 102.667H722.983V105.85H723.155C723.757 104.76 724.703 103.843 725.994 103.097C727.284 102.352 728.66 101.979 730.123 101.979C732.732 101.979 734.71 102.739 736.058 104.258C737.434 105.778 738.122 107.857 738.122 110.495V124H734.51V111.054C734.51 107.212 732.717 105.291 729.133 105.291C727.986 105.291 726.954 105.62 726.037 106.28C725.119 106.939 724.402 107.8 723.886 108.86C723.399 109.921 723.155 111.04 723.155 112.215V124H719.499V102.667ZM745.465 98.194C744.748 98.194 744.131 97.9359 743.615 97.4198C743.099 96.9037 742.841 96.2872 742.841 95.5704C742.841 94.8536 743.099 94.2371 743.615 93.721C744.131 93.2048 744.748 92.9468 745.465 92.9468C746.181 92.9468 746.798 93.2048 747.314 93.721C747.83 94.2371 748.088 94.8536 748.088 95.5704C748.088 96.2872 747.83 96.9037 747.314 97.4198C746.827 97.9359 746.21 98.194 745.465 98.194ZM743.658 102.667H747.271V124H743.658V102.667ZM750.524 102.667H754.481L761.018 119.699H761.105L767.728 102.667H771.599L762.868 124H759.169L750.524 102.667ZM783.397 124.688C781.332 124.688 779.483 124.201 777.849 123.226C776.243 122.251 774.981 120.903 774.064 119.183C773.146 117.462 772.687 115.513 772.687 113.334C772.687 111.269 773.117 109.377 773.978 107.656C774.838 105.907 776.056 104.531 777.633 103.527C779.239 102.495 781.074 101.979 783.139 101.979C785.203 101.979 787.01 102.452 788.558 103.398C790.135 104.316 791.339 105.62 792.171 107.312C793.002 109.004 793.418 110.954 793.418 113.161C793.418 113.563 793.389 113.85 793.332 114.022H776.386C776.444 115.627 776.831 116.989 777.547 118.108C778.264 119.197 779.153 120.014 780.214 120.559C781.304 121.104 782.422 121.376 783.569 121.376C786.264 121.376 788.343 120.057 789.805 117.419L793.031 118.968C792.113 120.688 790.838 122.079 789.203 123.14C787.597 124.172 785.662 124.688 783.397 124.688ZM789.547 110.968C789.49 110.108 789.246 109.248 788.816 108.387C788.386 107.527 787.683 106.796 786.709 106.194C785.762 105.592 784.544 105.291 783.053 105.291C781.447 105.291 780.056 105.807 778.881 106.839C777.705 107.871 776.96 109.248 776.644 110.968H789.547ZM797.539 102.667H801.023V106.151H801.195C801.596 104.975 802.413 104 803.646 103.226C804.908 102.423 806.155 102.022 807.388 102.022C808.277 102.022 809.108 102.151 809.883 102.409V106.366C809.108 105.936 808.105 105.721 806.872 105.721C805.868 105.721 804.922 106.022 804.033 106.624C803.173 107.197 802.485 107.972 801.969 108.946C801.453 109.921 801.195 110.982 801.195 112.129V124H797.539V102.667ZM819.976 124.688C817.711 124.688 815.79 124.115 814.213 122.968C812.636 121.821 811.532 120.401 810.901 118.71L814.127 117.29C814.7 118.638 815.503 119.67 816.535 120.387C817.596 121.104 818.743 121.462 819.976 121.462C821.352 121.462 822.485 121.161 823.374 120.559C824.291 119.957 824.75 119.226 824.75 118.366C824.75 117.534 824.406 116.846 823.718 116.301C823.059 115.756 821.912 115.283 820.277 114.882L817.353 114.151C815.747 113.778 814.371 113.104 813.224 112.129C812.105 111.154 811.546 109.864 811.546 108.258C811.546 106.939 811.919 105.807 812.664 104.861C813.439 103.914 814.457 103.197 815.718 102.71C816.98 102.223 818.356 101.979 819.847 101.979C821.682 101.979 823.345 102.409 824.836 103.269C826.356 104.101 827.431 105.291 828.062 106.839L824.836 108.215C824.378 107.183 823.675 106.423 822.729 105.936C821.811 105.448 820.779 105.205 819.632 105.205C818.514 105.205 817.496 105.477 816.578 106.022C815.689 106.567 815.245 107.269 815.245 108.129C815.245 108.875 815.532 109.463 816.105 109.893C816.707 110.323 817.654 110.71 818.944 111.054L822.127 111.828C824.248 112.373 825.826 113.19 826.858 114.28C827.919 115.341 828.449 116.617 828.449 118.108C828.449 119.341 828.091 120.459 827.374 121.462C826.657 122.466 825.653 123.254 824.363 123.828C823.073 124.401 821.611 124.688 819.976 124.688ZM834.299 98.194C833.582 98.194 832.965 97.9359 832.449 97.4198C831.933 96.9037 831.675 96.2872 831.675 95.5704C831.675 94.8536 831.933 94.2371 832.449 93.721C832.965 93.2048 833.582 92.9468 834.299 92.9468C835.016 92.9468 835.632 93.2048 836.148 93.721C836.664 94.2371 836.922 94.8536 836.922 95.5704C836.922 96.2872 836.664 96.9037 836.148 97.4198C835.661 97.9359 835.044 98.194 834.299 98.194ZM832.492 102.667H836.105V124H832.492V102.667ZM849.772 124.344C848.911 124.344 848.109 124.201 847.363 123.914C846.646 123.627 846.03 123.24 845.514 122.753C844.94 122.208 844.51 121.577 844.223 120.86C843.965 120.115 843.836 119.24 843.836 118.237V105.979H840.051V102.667H843.836V96.3016H847.449V102.667H852.696V105.979H847.449V117.333C847.449 118.538 847.693 119.427 848.18 120C848.668 120.631 849.413 120.946 850.417 120.946C851.306 120.946 852.08 120.746 852.739 120.344V123.871C852.281 124.043 851.836 124.158 851.406 124.215C851.005 124.301 850.46 124.344 849.772 124.344ZM863.676 122.624L854.816 102.667H858.773L865.396 118.366H865.482L871.891 102.667H875.848L862.515 133.29H858.773L863.676 122.624ZM903.108 124.688C900.155 124.688 897.46 123.986 895.023 122.581C892.585 121.176 890.664 119.24 889.259 116.774C887.883 114.308 887.195 111.584 887.195 108.602C887.195 105.62 887.883 102.896 889.259 100.431C890.664 97.9646 892.585 96.0292 895.023 94.6242C897.46 93.2192 900.155 92.5167 903.108 92.5167C905.431 92.5167 907.538 92.9611 909.431 93.85C911.352 94.7102 913.001 95.9431 914.377 97.5489L911.796 100.086C910.649 98.6814 909.359 97.6492 907.926 96.9897C906.521 96.3302 904.915 96.0005 903.108 96.0005C900.901 96.0005 898.865 96.5309 897.001 97.5919C895.137 98.6241 893.646 100.101 892.528 102.022C891.438 103.914 890.894 106.108 890.894 108.602C890.894 111.097 891.438 113.305 892.528 115.226C893.646 117.118 895.137 118.595 897.001 119.656C898.865 120.688 900.901 121.204 903.108 121.204C906.865 121.204 910.047 119.67 912.657 116.602L915.28 119.183C913.875 120.875 912.126 122.222 910.033 123.226C907.94 124.201 905.632 124.688 903.108 124.688ZM928.603 124.688C926.509 124.688 924.631 124.201 922.968 123.226C921.305 122.222 920.001 120.86 919.054 119.14C918.137 117.391 917.678 115.455 917.678 113.334C917.678 111.212 918.137 109.291 919.054 107.57C920.001 105.821 921.305 104.459 922.968 103.484C924.631 102.481 926.509 101.979 928.603 101.979C930.696 101.979 932.574 102.481 934.237 103.484C935.929 104.459 937.233 105.821 938.151 107.57C939.097 109.291 939.57 111.212 939.57 113.334C939.57 115.455 939.097 117.391 938.151 119.14C937.233 120.86 935.929 122.222 934.237 123.226C932.574 124.201 930.696 124.688 928.603 124.688ZM928.603 121.376C929.893 121.376 931.097 121.047 932.215 120.387C933.334 119.728 934.223 118.796 934.882 117.592C935.57 116.359 935.914 114.939 935.914 113.334C935.914 111.728 935.57 110.323 934.882 109.119C934.223 107.886 933.334 106.939 932.215 106.28C931.097 105.62 929.893 105.291 928.603 105.291C927.341 105.291 926.151 105.62 925.033 106.28C923.914 106.939 923.011 107.886 922.323 109.119C921.664 110.323 921.334 111.728 921.334 113.334C921.334 114.939 921.664 116.359 922.323 117.592C923.011 118.796 923.914 119.728 925.033 120.387C926.151 121.047 927.341 121.376 928.603 121.376ZM943.495 93.2048H947.151V124H943.495V93.2048ZM952.484 93.2048H956.14V124H952.484V93.2048ZM970.767 124.688C968.703 124.688 966.854 124.201 965.219 123.226C963.613 122.251 962.352 120.903 961.434 119.183C960.517 117.462 960.058 115.513 960.058 113.334C960.058 111.269 960.488 109.377 961.348 107.656C962.208 105.907 963.427 104.531 965.004 103.527C966.61 102.495 968.445 101.979 970.509 101.979C972.574 101.979 974.38 102.452 975.929 103.398C977.506 104.316 978.71 105.62 979.542 107.312C980.373 109.004 980.789 110.954 980.789 113.161C980.789 113.563 980.76 113.85 980.703 114.022H963.757C963.814 115.627 964.201 116.989 964.918 118.108C965.635 119.197 966.524 120.014 967.585 120.559C968.674 121.104 969.793 121.376 970.94 121.376C973.635 121.376 975.714 120.057 977.176 117.419L980.402 118.968C979.484 120.688 978.208 122.079 976.574 123.14C974.968 124.172 973.033 124.688 970.767 124.688ZM976.918 110.968C976.861 110.108 976.617 109.248 976.187 108.387C975.757 107.527 975.054 106.796 974.079 106.194C973.133 105.592 971.914 105.291 970.423 105.291C968.818 105.291 967.427 105.807 966.251 106.839C965.076 107.871 964.33 109.248 964.015 110.968H976.918ZM994.496 133.978C991.915 133.978 989.807 133.362 988.173 132.129C986.539 130.896 985.435 129.462 984.861 127.828L988.259 126.409C988.689 127.67 989.449 128.688 990.539 129.462C991.657 130.265 992.976 130.667 994.496 130.667C996.761 130.667 998.495 129.993 999.7 128.645C1000.93 127.326 1001.55 125.477 1001.55 123.097V120.817H1001.38C1000.69 121.907 999.7 122.81 998.409 123.527C997.119 124.244 995.657 124.602 994.022 124.602C992.216 124.602 990.539 124.115 988.99 123.14C987.442 122.165 986.209 120.817 985.291 119.097C984.374 117.376 983.915 115.441 983.915 113.291C983.915 111.14 984.374 109.205 985.291 107.484C986.209 105.764 987.442 104.416 988.99 103.441C990.539 102.466 992.216 101.979 994.022 101.979C995.657 101.979 997.119 102.337 998.409 103.054C999.7 103.771 1000.69 104.674 1001.38 105.764H1001.55V102.667H1005.03V123.14C1005.03 125.491 1004.57 127.484 1003.66 129.118C1002.74 130.753 1001.48 131.971 999.872 132.774C998.295 133.577 996.503 133.978 994.496 133.978ZM994.582 121.29C995.843 121.29 997.004 120.975 998.065 120.344C999.126 119.685 999.972 118.753 1000.6 117.548C1001.26 116.344 1001.59 114.925 1001.59 113.291C1001.59 111.656 1001.26 110.237 1000.6 109.033C999.972 107.8 999.126 106.868 998.065 106.237C997.004 105.606 995.843 105.291 994.582 105.291C993.32 105.291 992.159 105.62 991.098 106.28C990.037 106.911 989.177 107.828 988.517 109.033C987.886 110.237 987.571 111.656 987.571 113.291C987.571 114.925 987.886 116.344 988.517 117.548C989.177 118.753 990.037 119.685 991.098 120.344C992.159 120.975 993.32 121.29 994.582 121.29ZM1019.7 124.688C1017.64 124.688 1015.79 124.201 1014.15 123.226C1012.55 122.251 1011.28 120.903 1010.37 119.183C1009.45 117.462 1008.99 115.513 1008.99 113.334C1008.99 111.269 1009.42 109.377 1010.28 107.656C1011.14 105.907 1012.36 104.531 1013.94 103.527C1015.54 102.495 1017.38 101.979 1019.44 101.979C1021.51 101.979 1023.31 102.452 1024.86 103.398C1026.44 104.316 1027.64 105.62 1028.47 107.312C1029.31 109.004 1029.72 110.954 1029.72 113.161C1029.72 113.563 1029.69 113.85 1029.64 114.022H1012.69C1012.75 115.627 1013.13 116.989 1013.85 118.108C1014.57 119.197 1015.46 120.014 1016.52 120.559C1017.61 121.104 1018.72 121.376 1019.87 121.376C1022.57 121.376 1024.65 120.057 1026.11 117.419L1029.33 118.968C1028.42 120.688 1027.14 122.079 1025.51 123.14C1023.9 124.172 1021.96 124.688 1019.7 124.688ZM1025.85 110.968C1025.79 110.108 1025.55 109.248 1025.12 108.387C1024.69 107.527 1023.99 106.796 1023.01 106.194C1022.07 105.592 1020.85 105.291 1019.36 105.291C1017.75 105.291 1016.36 105.807 1015.18 106.839C1014.01 107.871 1013.26 109.248 1012.95 110.968H1025.85ZM1053.56 124.688C1051.47 124.688 1049.59 124.201 1047.92 123.226C1046.26 122.222 1044.96 120.86 1044.01 119.14C1043.09 117.391 1042.63 115.455 1042.63 113.334C1042.63 111.212 1043.09 109.291 1044.01 107.57C1044.96 105.821 1046.26 104.459 1047.92 103.484C1049.59 102.481 1051.47 101.979 1053.56 101.979C1055.65 101.979 1057.53 102.481 1059.19 103.484C1060.88 104.459 1062.19 105.821 1063.11 107.57C1064.05 109.291 1064.53 111.212 1064.53 113.334C1064.53 115.455 1064.05 117.391 1063.11 119.14C1062.19 120.86 1060.88 122.222 1059.19 123.226C1057.53 124.201 1055.65 124.688 1053.56 124.688ZM1053.56 121.376C1054.85 121.376 1056.05 121.047 1057.17 120.387C1058.29 119.728 1059.18 118.796 1059.84 117.592C1060.53 116.359 1060.87 114.939 1060.87 113.334C1060.87 111.728 1060.53 110.323 1059.84 109.119C1059.18 107.886 1058.29 106.939 1057.17 106.28C1056.05 105.62 1054.85 105.291 1053.56 105.291C1052.3 105.291 1051.11 105.62 1049.99 106.28C1048.87 106.939 1047.97 107.886 1047.28 109.119C1046.62 110.323 1046.29 111.728 1046.29 113.334C1046.29 114.939 1046.62 116.359 1047.28 117.592C1047.97 118.796 1048.87 119.728 1049.99 120.387C1051.11 121.047 1052.3 121.376 1053.56 121.376ZM1070.53 105.979H1066.53V102.667H1070.53V99.6994C1070.53 98.323 1070.83 97.1187 1071.43 96.0865C1072.06 95.0543 1072.89 94.2658 1073.92 93.721C1074.98 93.1475 1076.16 92.8608 1077.45 92.8608C1078.17 92.8608 1078.74 92.9038 1079.17 92.9898C1079.63 93.0758 1080.1 93.2048 1080.59 93.3769V96.9467C1079.67 96.4879 1078.67 96.2585 1077.58 96.2585C1076.63 96.2585 1075.83 96.6026 1075.17 97.2908C1074.51 97.9503 1074.18 98.8822 1074.18 100.086V102.667H1079.69V105.979H1074.18V124H1070.53V105.979ZM1094.68 93.2048H1112.53V96.6886H1098.33V106.882H1111.15V110.323H1098.33V120.516H1112.53V124H1094.68V93.2048ZM1117.17 102.667H1120.66V105.85H1120.83C1121.43 104.76 1122.38 103.843 1123.67 103.097C1124.96 102.352 1126.33 101.979 1127.8 101.979C1130.41 101.979 1132.38 102.739 1133.73 104.258C1135.11 105.778 1135.8 107.857 1135.8 110.495V124H1132.18V111.054C1132.18 107.212 1130.39 105.291 1126.81 105.291C1125.66 105.291 1124.63 105.62 1123.71 106.28C1122.79 106.939 1122.08 107.8 1121.56 108.86C1121.07 109.921 1120.83 111.04 1120.83 112.215V124H1117.17V102.667ZM1150.15 133.978C1147.57 133.978 1145.47 133.362 1143.83 132.129C1142.2 130.896 1141.09 129.462 1140.52 127.828L1143.92 126.409C1144.35 127.67 1145.11 128.688 1146.2 129.462C1147.32 130.265 1148.64 130.667 1150.15 130.667C1152.42 130.667 1154.15 129.993 1155.36 128.645C1156.59 127.326 1157.21 125.477 1157.21 123.097V120.817H1157.04C1156.35 121.907 1155.36 122.81 1154.07 123.527C1152.78 124.244 1151.32 124.602 1149.68 124.602C1147.88 124.602 1146.2 124.115 1144.65 123.14C1143.1 122.165 1141.87 120.817 1140.95 119.097C1140.03 117.376 1139.57 115.441 1139.57 113.291C1139.57 111.14 1140.03 109.205 1140.95 107.484C1141.87 105.764 1143.1 104.416 1144.65 103.441C1146.2 102.466 1147.88 101.979 1149.68 101.979C1151.32 101.979 1152.78 102.337 1154.07 103.054C1155.36 103.771 1156.35 104.674 1157.04 105.764H1157.21V102.667H1160.69V123.14C1160.69 125.491 1160.23 127.484 1159.32 129.118C1158.4 130.753 1157.14 131.971 1155.53 132.774C1153.95 133.577 1152.16 133.978 1150.15 133.978ZM1150.24 121.29C1151.5 121.29 1152.66 120.975 1153.72 120.344C1154.79 119.685 1155.63 118.753 1156.26 117.548C1156.92 116.344 1157.25 114.925 1157.25 113.291C1157.25 111.656 1156.92 110.237 1156.26 109.033C1155.63 107.8 1154.79 106.868 1153.72 106.237C1152.66 105.606 1151.5 105.291 1150.24 105.291C1148.98 105.291 1147.82 105.62 1146.76 106.28C1145.7 106.911 1144.84 107.828 1144.18 109.033C1143.55 110.237 1143.23 111.656 1143.23 113.291C1143.23 114.925 1143.55 116.344 1144.18 117.548C1144.84 118.753 1145.7 119.685 1146.76 120.344C1147.82 120.975 1148.98 121.29 1150.24 121.29ZM1168.21 98.194C1167.5 98.194 1166.88 97.9359 1166.36 97.4198C1165.85 96.9037 1165.59 96.2872 1165.59 95.5704C1165.59 94.8536 1165.85 94.2371 1166.36 93.721C1166.88 93.2048 1167.5 92.9468 1168.21 92.9468C1168.93 92.9468 1169.55 93.2048 1170.06 93.721C1170.58 94.2371 1170.84 94.8536 1170.84 95.5704C1170.84 96.2872 1170.58 96.9037 1170.06 97.4198C1169.58 97.9359 1168.96 98.194 1168.21 98.194ZM1166.41 102.667H1170.02V124H1166.41V102.667ZM1175.68 102.667H1179.17V105.85H1179.34C1179.94 104.76 1180.89 103.843 1182.18 103.097C1183.47 102.352 1184.84 101.979 1186.31 101.979C1188.91 101.979 1190.89 102.739 1192.24 104.258C1193.62 105.778 1194.31 107.857 1194.31 110.495V124H1190.69V111.054C1190.69 107.212 1188.9 105.291 1185.32 105.291C1184.17 105.291 1183.14 105.62 1182.22 106.28C1181.3 106.939 1180.59 107.8 1180.07 108.86C1179.58 109.921 1179.34 111.04 1179.34 112.215V124H1175.68V102.667ZM1209 124.688C1206.94 124.688 1205.09 124.201 1203.45 123.226C1201.85 122.251 1200.59 120.903 1199.67 119.183C1198.75 117.462 1198.29 115.513 1198.29 113.334C1198.29 111.269 1198.72 109.377 1199.58 107.656C1200.44 105.907 1201.66 104.531 1203.24 103.527C1204.84 102.495 1206.68 101.979 1208.74 101.979C1210.81 101.979 1212.62 102.452 1214.16 103.398C1215.74 104.316 1216.95 105.62 1217.78 107.312C1218.61 109.004 1219.02 110.954 1219.02 113.161C1219.02 113.563 1219 113.85 1218.94 114.022H1201.99C1202.05 115.627 1202.44 116.989 1203.15 118.108C1203.87 119.197 1204.76 120.014 1205.82 120.559C1206.91 121.104 1208.03 121.376 1209.17 121.376C1211.87 121.376 1213.95 120.057 1215.41 117.419L1218.64 118.968C1217.72 120.688 1216.44 122.079 1214.81 123.14C1213.2 124.172 1211.27 124.688 1209 124.688ZM1215.15 110.968C1215.1 110.108 1214.85 109.248 1214.42 108.387C1213.99 107.527 1213.29 106.796 1212.31 106.194C1211.37 105.592 1210.15 105.291 1208.66 105.291C1207.05 105.291 1205.66 105.807 1204.49 106.839C1203.31 107.871 1202.57 109.248 1202.25 110.968H1215.15ZM1232.86 124.688C1230.8 124.688 1228.95 124.201 1227.31 123.226C1225.71 122.251 1224.44 120.903 1223.53 119.183C1222.61 117.462 1222.15 115.513 1222.15 113.334C1222.15 111.269 1222.58 109.377 1223.44 107.656C1224.3 105.907 1225.52 104.531 1227.1 103.527C1228.7 102.495 1230.54 101.979 1232.6 101.979C1234.67 101.979 1236.47 102.452 1238.02 103.398C1239.6 104.316 1240.8 105.62 1241.63 107.312C1242.47 109.004 1242.88 110.954 1242.88 113.161C1242.88 113.563 1242.85 113.85 1242.8 114.022H1225.85C1225.91 115.627 1226.29 116.989 1227.01 118.108C1227.73 119.197 1228.62 120.014 1229.68 120.559C1230.77 121.104 1231.88 121.376 1233.03 121.376C1235.73 121.376 1237.81 120.057 1239.27 117.419L1242.49 118.968C1241.58 120.688 1240.3 122.079 1238.67 123.14C1237.06 124.172 1235.12 124.688 1232.86 124.688ZM1239.01 110.968C1238.95 110.108 1238.71 109.248 1238.28 108.387C1237.85 107.527 1237.15 106.796 1236.17 106.194C1235.23 105.592 1234.01 105.291 1232.52 105.291C1230.91 105.291 1229.52 105.807 1228.34 106.839C1227.17 107.871 1226.42 109.248 1226.11 110.968H1239.01ZM1247 102.667H1250.49V106.151H1250.66C1251.06 104.975 1251.88 104 1253.11 103.226C1254.37 102.423 1255.62 102.022 1256.85 102.022C1257.74 102.022 1258.57 102.151 1259.35 102.409V106.366C1258.57 105.936 1257.57 105.721 1256.33 105.721C1255.33 105.721 1254.38 106.022 1253.5 106.624C1252.64 107.197 1251.95 107.972 1251.43 108.946C1250.92 109.921 1250.66 110.982 1250.66 112.129V124H1247V102.667ZM1264.9 98.194C1264.19 98.194 1263.57 97.9359 1263.05 97.4198C1262.54 96.9037 1262.28 96.2872 1262.28 95.5704C1262.28 94.8536 1262.54 94.2371 1263.05 93.721C1263.57 93.2048 1264.19 92.9468 1264.9 92.9468C1265.62 92.9468 1266.24 93.2048 1266.75 93.721C1267.27 94.2371 1267.53 94.8536 1267.53 95.5704C1267.53 96.2872 1267.27 96.9037 1266.75 97.4198C1266.26 97.9359 1265.65 98.194 1264.9 98.194ZM1263.1 102.667H1266.71V124H1263.1V102.667ZM1272.37 102.667H1275.85V105.85H1276.03C1276.63 104.76 1277.57 103.843 1278.87 103.097C1280.16 102.352 1281.53 101.979 1282.99 101.979C1285.6 101.979 1287.58 102.739 1288.93 104.258C1290.31 105.778 1290.99 107.857 1290.99 110.495V124H1287.38V111.054C1287.38 107.212 1285.59 105.291 1282 105.291C1280.86 105.291 1279.83 105.62 1278.91 106.28C1277.99 106.939 1277.27 107.8 1276.76 108.86C1276.27 109.921 1276.03 111.04 1276.03 112.215V124H1272.37V102.667ZM1305.35 133.978C1302.77 133.978 1300.66 133.362 1299.03 132.129C1297.4 130.896 1296.29 129.462 1295.72 127.828L1299.12 126.409C1299.55 127.67 1300.31 128.688 1301.4 129.462C1302.51 130.265 1303.83 130.667 1305.35 130.667C1307.62 130.667 1309.35 129.993 1310.56 128.645C1311.79 127.326 1312.41 125.477 1312.41 123.097V120.817H1312.23C1311.55 121.907 1310.56 122.81 1309.27 123.527C1307.98 124.244 1306.51 124.602 1304.88 124.602C1303.07 124.602 1301.4 124.115 1299.85 123.14C1298.3 122.165 1297.07 120.817 1296.15 119.097C1295.23 117.376 1294.77 115.441 1294.77 113.291C1294.77 111.14 1295.23 109.205 1296.15 107.484C1297.07 105.764 1298.3 104.416 1299.85 103.441C1301.4 102.466 1303.07 101.979 1304.88 101.979C1306.51 101.979 1307.98 102.337 1309.27 103.054C1310.56 103.771 1311.55 104.674 1312.23 105.764H1312.41V102.667H1315.89V123.14C1315.89 125.491 1315.43 127.484 1314.51 129.118C1313.6 130.753 1312.33 131.971 1310.73 132.774C1309.15 133.577 1307.36 133.978 1305.35 133.978ZM1305.44 121.29C1306.7 121.29 1307.86 120.975 1308.92 120.344C1309.98 119.685 1310.83 118.753 1311.46 117.548C1312.12 116.344 1312.45 114.925 1312.45 113.291C1312.45 111.656 1312.12 110.237 1311.46 109.033C1310.83 107.8 1309.98 106.868 1308.92 106.237C1307.86 105.606 1306.7 105.291 1305.44 105.291C1304.18 105.291 1303.02 105.62 1301.95 106.28C1300.89 106.911 1300.03 107.828 1299.37 109.033C1298.74 110.237 1298.43 111.656 1298.43 113.291C1298.43 114.925 1298.74 116.344 1299.37 117.548C1300.03 118.753 1300.89 119.685 1301.95 120.344C1303.02 120.975 1304.18 121.29 1305.44 121.29ZM1331.99 93.2048H1342.35C1344.07 93.2048 1345.67 93.5919 1347.13 94.3661C1348.62 95.1403 1349.79 96.2299 1350.65 97.6349C1351.54 99.0112 1351.99 100.574 1351.99 102.323C1351.99 104.072 1351.54 105.649 1350.65 107.054C1349.79 108.43 1348.62 109.506 1347.13 110.28C1345.67 111.054 1344.07 111.441 1342.35 111.441H1335.64V124H1331.99V93.2048ZM1342.48 107.957C1343.63 107.957 1344.63 107.685 1345.49 107.14C1346.38 106.595 1347.06 105.893 1347.52 105.033C1348 104.172 1348.25 103.269 1348.25 102.323C1348.25 101.377 1348 100.474 1347.52 99.6133C1347.06 98.7531 1346.38 98.0506 1345.49 97.5058C1344.63 96.961 1343.63 96.6886 1342.48 96.6886H1335.64V107.957H1342.48ZM1363.41 124.688C1360.77 124.688 1358.76 123.928 1357.38 122.409C1356.04 120.889 1355.36 118.781 1355.36 116.086V102.667H1359.02V115.484C1359.02 119.412 1360.78 121.376 1364.31 121.376C1365.48 121.376 1366.53 121.047 1367.45 120.387C1368.39 119.728 1369.11 118.867 1369.6 117.807C1370.12 116.746 1370.37 115.627 1370.37 114.452V102.667H1373.99V124H1370.55V120.817H1370.37C1369.74 121.907 1368.78 122.824 1367.49 123.57C1366.23 124.315 1364.87 124.688 1363.41 124.688ZM1379.35 102.667H1382.83V105.85H1383.01C1383.61 104.76 1384.55 103.843 1385.84 103.097C1387.13 102.352 1388.51 101.979 1389.97 101.979C1392.58 101.979 1394.56 102.739 1395.91 104.258C1397.28 105.778 1397.97 107.857 1397.97 110.495V124H1394.36V111.054C1394.36 107.212 1392.57 105.291 1388.98 105.291C1387.84 105.291 1386.8 105.62 1385.89 106.28C1384.97 106.939 1384.25 107.8 1383.74 108.86C1383.25 109.921 1383.01 111.04 1383.01 112.215V124H1379.35V102.667ZM1412.67 124.688C1410.61 124.688 1408.76 124.201 1407.12 123.226C1405.52 122.251 1404.25 120.903 1403.34 119.183C1402.42 117.462 1401.96 115.513 1401.96 113.334C1401.96 111.269 1402.39 109.377 1403.25 107.656C1404.11 105.907 1405.33 104.531 1406.91 103.527C1408.51 102.495 1410.35 101.979 1412.41 101.979C1414.48 101.979 1416.28 102.452 1417.83 103.398C1419.41 104.316 1420.61 105.62 1421.44 107.312C1422.28 109.004 1422.69 110.954 1422.69 113.161C1422.69 113.563 1422.66 113.85 1422.61 114.022H1405.66C1405.72 115.627 1406.1 116.989 1406.82 118.108C1407.54 119.197 1408.43 120.014 1409.49 120.559C1410.58 121.104 1411.7 121.376 1412.84 121.376C1415.54 121.376 1417.62 120.057 1419.08 117.419L1422.3 118.968C1421.39 120.688 1420.11 122.079 1418.48 123.14C1416.87 124.172 1414.94 124.688 1412.67 124.688ZM1418.82 110.968C1418.76 110.108 1418.52 109.248 1418.09 108.387C1417.66 107.527 1416.96 106.796 1415.98 106.194C1415.04 105.592 1413.82 105.291 1412.33 105.291C1410.72 105.291 1409.33 105.807 1408.15 106.839C1406.98 107.871 1406.23 109.248 1405.92 110.968H1418.82Z" fill="white"/>
</svg>
